<svg xmlns="http://www.w3.org/2000/svg" viewBox="0 0 512 512">
  <rect width="512" height="512" rx="96" fill="#184e77"/>
  <path d="M128 292h256l-30-86c-8-24-25-38-50-38h-96c-25 0-42 14-50 38l-30 86Z" fill="#f7c948"/>
  <path d="M104 284h304c18 0 32 14 32 32v56c0 13-11 24-24 24h-28c-13 0-24-11-24-24v-4H148v4c0 13-11 24-24 24H96c-13 0-24-11-24-24v-56c0-18 14-32 32-32Z" fill="#ffffff"/>
  <circle cx="144" cy="340" r="26" fill="#16324f"/>
  <circle cx="368" cy="340" r="26" fill="#16324f"/>
  <path d="M190 210h132l14 48H176l14-48Z" fill="#8ecae6"/>
  <path d="M214 126h84v32h-84z" fill="#ffffff"/>
</svg>
